<svg id="Layer_1" enable-background="new 0 0 512 512" height="512" viewBox="0 0 512 512" width="512" xmlns="http://www.w3.org/2000/svg"><g><path d="m288.134 497h-64.268c-8.284 0-15-6.716-15-15v-91.94c0-8.284 6.716-15 15-15h64.268c8.284 0 15 6.716 15 15v91.94c0 8.284-6.716 15-15 15z" fill="#d26432"/><path d="m303.134 482v-91.94c0-8.284-6.716-15-15-15h-32.134v121.94h32.134c8.284 0 15-6.716 15-15z" fill="#a54628"/><path d="m256 415.6c-19.251 0-37.833-8.272-49.922-21.487-17.081 5.394-37.308 3.265-53.978-6.358-16.666-9.621-28.624-26.075-32.492-43.567-17.489-3.864-33.944-15.819-43.57-32.486-9.624-16.671-11.751-36.901-6.352-53.984-13.213-12.093-21.486-30.675-21.486-49.918 0-19.247 8.271-37.83 21.485-49.924-5.401-17.081-3.274-37.311 6.353-53.979 9.624-16.67 26.079-28.629 43.57-32.494 3.868-17.492 15.826-33.946 32.491-43.567 16.666-9.621 36.894-11.749 53.978-6.351 12.087-13.214 30.669-21.485 49.923-21.485s37.836 8.271 49.923 21.485c17.084-5.397 37.311-3.271 53.977 6.351s28.624 26.076 32.492 43.568c17.492 3.863 33.946 15.822 43.572 32.497 9.625 16.665 11.752 36.894 6.351 53.975 13.214 12.094 21.485 30.677 21.485 49.924 0 19.243-8.272 37.825-21.486 49.918 5.399 17.083 3.272 37.313-6.351 53.982-9.626 16.668-26.083 28.624-43.571 32.488-3.868 17.492-15.826 33.947-32.492 43.567-16.669 9.623-36.897 11.752-53.978 6.358-12.09 13.216-30.671 21.487-49.922 21.487z" fill="#87e752"/><path d="m256 415.6v-415.6c19.254 0 37.836 8.271 49.923 21.485 17.084-5.397 37.311-3.271 53.977 6.351s28.624 26.076 32.492 43.568c17.492 3.863 33.946 15.822 43.572 32.497 9.625 16.665 11.752 36.894 6.351 53.975 13.214 12.094 21.485 30.677 21.485 49.924 0 19.243-8.272 37.825-21.486 49.918 5.399 17.083 3.272 37.313-6.351 53.982-9.626 16.668-26.083 28.624-43.571 32.488-3.868 17.492-15.826 33.947-32.492 43.567-16.669 9.623-36.897 11.752-53.978 6.358-12.09 13.216-30.671 21.487-49.922 21.487z" fill="#4ec95f"/><path d="m368.467 512h-224.934c-8.284 0-15-6.716-15-15s6.716-15 15-15h224.934c8.284 0 15 6.716 15 15s-6.716 15-15 15z" fill="#c8ff50"/><g><path d="m160.667 159.6c-8.284 0-15-6.716-15-15 0-25.989 21.144-47.133 47.133-47.133 8.284 0 15 6.716 15 15s-6.716 15-15 15c-9.447 0-17.133 7.686-17.133 17.133 0 8.284-6.716 15-15 15z" fill="#4ec95f"/><path d="m192.8 318.133c-25.989 0-47.133-21.144-47.133-47.133 0-8.284 6.716-15 15-15s15 6.716 15 15c0 9.447 7.686 17.133 17.133 17.133 8.284 0 15 6.716 15 15s-6.716 15-15 15z" fill="#4ec95f"/><g fill="#14aa6b"><path d="m351.333 159.6c-8.284 0-15-6.716-15-15 0-9.447-7.686-17.133-17.133-17.133-8.284 0-15-6.716-15-15s6.716-15 15-15c25.989 0 47.133 21.144 47.133 47.133 0 8.284-6.716 15-15 15z"/><path d="m319.2 318.133c-8.284 0-15-6.716-15-15s6.716-15 15-15c9.447 0 17.133-7.686 17.133-17.133 0-8.284 6.716-15 15-15s15 6.716 15 15c0 25.989-21.144 47.133-47.133 47.133z"/></g></g><path d="m383.467 497c0-8.284-6.716-15-15-15h-112.467v30h112.467c8.284 0 15-6.716 15-15z" fill="#87e752"/></g></svg>